<mxfile host="65bd71144e">
    <diagram name="Page-1" id="r-D5-zUOY74GgjWdJqKL">
        <mxGraphModel dx="697" dy="594" grid="1" gridSize="10" guides="1" tooltips="1" connect="1" arrows="1" fold="1" page="1" pageScale="1" pageWidth="1100" pageHeight="850" math="0" shadow="0">
            <root>
                <mxCell id="0"/>
                <mxCell id="1" parent="0"/>
                <mxCell id="c1o_I43gNxkD8a20djhd-44" style="edgeStyle=orthogonalEdgeStyle;rounded=0;orthogonalLoop=1;jettySize=auto;html=1;curved=0;" parent="1" edge="1">
                    <mxGeometry relative="1" as="geometry">
                        <mxPoint x="120" y="310" as="sourcePoint"/>
                        <mxPoint x="260" y="310" as="targetPoint"/>
                    </mxGeometry>
                </mxCell>
                <mxCell id="c1o_I43gNxkD8a20djhd-45" value="Drop payload" style="edgeLabel;html=1;align=center;verticalAlign=middle;resizable=0;points=[];" parent="c1o_I43gNxkD8a20djhd-44" vertex="1" connectable="0">
                    <mxGeometry x="-0.0429" y="-3" relative="1" as="geometry">
                        <mxPoint y="-3" as="offset"/>
                    </mxGeometry>
                </mxCell>
                <mxCell id="c1o_I43gNxkD8a20djhd-1" value="&lt;div&gt;&lt;br&gt;&lt;/div&gt;" style="html=1;points=[[0,0,0,0,5],[0,1,0,0,-5],[1,0,0,0,5],[1,1,0,0,-5]];perimeter=orthogonalPerimeter;outlineConnect=0;targetShapes=umlLifeline;portConstraint=eastwest;newEdgeStyle={&quot;curved&quot;:0,&quot;rounded&quot;:0};" parent="1" vertex="1">
                    <mxGeometry x="110" y="90" width="10" height="560" as="geometry"/>
                </mxCell>
                <mxCell id="c1o_I43gNxkD8a20djhd-20" style="edgeStyle=orthogonalEdgeStyle;rounded=0;orthogonalLoop=1;jettySize=auto;html=1;curved=0;" parent="1" edge="1">
                    <mxGeometry relative="1" as="geometry">
                        <mxPoint x="260" y="160" as="sourcePoint"/>
                        <mxPoint x="120" y="160" as="targetPoint"/>
                        <Array as="points">
                            <mxPoint x="250" y="160"/>
                            <mxPoint x="250" y="160"/>
                        </Array>
                    </mxGeometry>
                </mxCell>
                <mxCell id="c1o_I43gNxkD8a20djhd-21" value="ACK communication" style="edgeLabel;html=1;align=center;verticalAlign=middle;resizable=0;points=[];" parent="c1o_I43gNxkD8a20djhd-20" vertex="1" connectable="0">
                    <mxGeometry x="0.0714" y="-4" relative="1" as="geometry">
                        <mxPoint x="5" y="4" as="offset"/>
                    </mxGeometry>
                </mxCell>
                <mxCell id="c1o_I43gNxkD8a20djhd-24" value="" style="edgeStyle=orthogonalEdgeStyle;rounded=0;orthogonalLoop=1;jettySize=auto;html=1;curved=0;" parent="1" source="c1o_I43gNxkD8a20djhd-8" target="c1o_I43gNxkD8a20djhd-23" edge="1">
                    <mxGeometry relative="1" as="geometry">
                        <Array as="points">
                            <mxPoint x="410" y="100"/>
                            <mxPoint x="410" y="100"/>
                        </Array>
                    </mxGeometry>
                </mxCell>
                <mxCell id="c1o_I43gNxkD8a20djhd-27" value="Initialize communication" style="edgeLabel;html=1;align=center;verticalAlign=middle;resizable=0;points=[];" parent="c1o_I43gNxkD8a20djhd-24" vertex="1" connectable="0">
                    <mxGeometry x="0.0308" y="-1" relative="1" as="geometry">
                        <mxPoint as="offset"/>
                    </mxGeometry>
                </mxCell>
                <mxCell id="c1o_I43gNxkD8a20djhd-29" style="edgeStyle=orthogonalEdgeStyle;rounded=0;orthogonalLoop=1;jettySize=auto;html=1;curved=0;" parent="1" source="c1o_I43gNxkD8a20djhd-8" target="c1o_I43gNxkD8a20djhd-23" edge="1">
                    <mxGeometry relative="1" as="geometry">
                        <Array as="points">
                            <mxPoint x="500" y="210"/>
                            <mxPoint x="500" y="210"/>
                        </Array>
                    </mxGeometry>
                </mxCell>
                <mxCell id="c1o_I43gNxkD8a20djhd-31" value="Request address change" style="edgeLabel;html=1;align=center;verticalAlign=middle;resizable=0;points=[];" parent="c1o_I43gNxkD8a20djhd-29" vertex="1" connectable="0">
                    <mxGeometry x="-0.0231" relative="1" as="geometry">
                        <mxPoint as="offset"/>
                    </mxGeometry>
                </mxCell>
                <mxCell id="c1o_I43gNxkD8a20djhd-72" style="edgeStyle=orthogonalEdgeStyle;rounded=0;orthogonalLoop=1;jettySize=auto;html=1;curved=0;" parent="1" edge="1">
                    <mxGeometry relative="1" as="geometry">
                        <mxPoint x="260" y="550" as="sourcePoint"/>
                        <mxPoint x="120" y="550" as="targetPoint"/>
                    </mxGeometry>
                </mxCell>
                <mxCell id="c1o_I43gNxkD8a20djhd-73" value="ACK Drop payload" style="edgeLabel;html=1;align=center;verticalAlign=middle;resizable=0;points=[];" parent="c1o_I43gNxkD8a20djhd-72" vertex="1" connectable="0">
                    <mxGeometry x="0.1" relative="1" as="geometry">
                        <mxPoint x="7" as="offset"/>
                    </mxGeometry>
                </mxCell>
                <mxCell id="8" style="edgeStyle=none;html=1;curved=0;rounded=0;entryX=0;entryY=0;entryDx=0;entryDy=5;entryPerimeter=0;" edge="1" parent="1" source="c1o_I43gNxkD8a20djhd-8" target="6">
                    <mxGeometry relative="1" as="geometry"/>
                </mxCell>
                <mxCell id="13" value="Raise payload" style="edgeLabel;html=1;align=center;verticalAlign=middle;resizable=0;points=[];" vertex="1" connectable="0" parent="8">
                    <mxGeometry x="-0.0732" y="1" relative="1" as="geometry">
                        <mxPoint x="5" as="offset"/>
                    </mxGeometry>
                </mxCell>
                <mxCell id="18" style="edgeStyle=none;html=1;curved=0;rounded=0;entryX=0;entryY=0;entryDx=0;entryDy=5;entryPerimeter=0;" edge="1" parent="1" source="c1o_I43gNxkD8a20djhd-8" target="c1o_I43gNxkD8a20djhd-47">
                    <mxGeometry relative="1" as="geometry"/>
                </mxCell>
                <mxCell id="19" value="Lower payload" style="edgeLabel;html=1;align=center;verticalAlign=middle;resizable=0;points=[];" vertex="1" connectable="0" parent="18">
                    <mxGeometry x="-0.02" y="-1" relative="1" as="geometry">
                        <mxPoint as="offset"/>
                    </mxGeometry>
                </mxCell>
                <mxCell id="20" style="edgeStyle=none;html=1;curved=0;rounded=0;" edge="1" parent="1" source="c1o_I43gNxkD8a20djhd-8" target="c1o_I43gNxkD8a20djhd-23">
                    <mxGeometry relative="1" as="geometry"/>
                </mxCell>
                <mxCell id="21" value="AT+SEND=&lt;i style=&quot;border-color: var(--border-color);&quot;&gt;AUGUST_CHILD&lt;/i&gt;&lt;div style=&quot;border-color: var(--border-color);&quot;&gt;DROP_PAYLOAD&lt;/div&gt;" style="edgeLabel;html=1;align=center;verticalAlign=middle;resizable=0;points=[];" vertex="1" connectable="0" parent="20">
                    <mxGeometry x="-0.0692" y="-1" relative="1" as="geometry">
                        <mxPoint y="1" as="offset"/>
                    </mxGeometry>
                </mxCell>
                <mxCell id="c1o_I43gNxkD8a20djhd-8" value="" style="html=1;points=[[0,0,0,0,5],[0,1,0,0,-5],[1,0,0,0,5],[1,1,0,0,-5]];perimeter=orthogonalPerimeter;outlineConnect=0;targetShapes=umlLifeline;portConstraint=eastwest;newEdgeStyle={&quot;curved&quot;:0,&quot;rounded&quot;:0};" parent="1" vertex="1">
                    <mxGeometry x="260" y="90" width="20" height="560" as="geometry"/>
                </mxCell>
                <mxCell id="c1o_I43gNxkD8a20djhd-11" value="Pixhawk Microcontroller" style="text;html=1;align=center;verticalAlign=middle;resizable=0;points=[];autosize=1;strokeColor=none;fillColor=none;rotation=0;fontStyle=1" parent="1" vertex="1">
                    <mxGeometry x="40" y="50" width="150" height="30" as="geometry"/>
                </mxCell>
                <mxCell id="c1o_I43gNxkD8a20djhd-14" style="edgeStyle=orthogonalEdgeStyle;rounded=0;orthogonalLoop=1;jettySize=auto;html=1;curved=0;entryX=0;entryY=0;entryDx=0;entryDy=5;entryPerimeter=0;exitX=1;exitY=0;exitDx=0;exitDy=5;exitPerimeter=0;" parent="1" edge="1">
                    <mxGeometry relative="1" as="geometry">
                        <mxPoint x="120" y="130" as="sourcePoint"/>
                        <mxPoint x="260" y="130" as="targetPoint"/>
                    </mxGeometry>
                </mxCell>
                <mxCell id="c1o_I43gNxkD8a20djhd-19" value="Initialize communication" style="edgeLabel;html=1;align=center;verticalAlign=middle;resizable=0;points=[];" parent="c1o_I43gNxkD8a20djhd-14" vertex="1" connectable="0">
                    <mxGeometry x="-0.0571" relative="1" as="geometry">
                        <mxPoint as="offset"/>
                    </mxGeometry>
                </mxCell>
                <mxCell id="c1o_I43gNxkD8a20djhd-22" value="AUGUST_PARENT" style="text;html=1;align=center;verticalAlign=middle;resizable=0;points=[];autosize=1;strokeColor=none;fillColor=none;rotation=0;fontStyle=1" parent="1" vertex="1">
                    <mxGeometry x="205" y="50" width="130" height="30" as="geometry"/>
                </mxCell>
                <mxCell id="c1o_I43gNxkD8a20djhd-28" value="ACK communication init" style="edgeStyle=orthogonalEdgeStyle;rounded=0;orthogonalLoop=1;jettySize=auto;html=1;curved=0;" parent="1" edge="1">
                    <mxGeometry relative="1" as="geometry">
                        <mxPoint x="540" y="120" as="sourcePoint"/>
                        <mxPoint x="280" y="120" as="targetPoint"/>
                    </mxGeometry>
                </mxCell>
                <mxCell id="c1o_I43gNxkD8a20djhd-33" style="edgeStyle=orthogonalEdgeStyle;rounded=0;orthogonalLoop=1;jettySize=auto;html=1;curved=0;" parent="1" source="c1o_I43gNxkD8a20djhd-23" target="c1o_I43gNxkD8a20djhd-8" edge="1">
                    <mxGeometry relative="1" as="geometry">
                        <Array as="points">
                            <mxPoint x="490" y="230"/>
                            <mxPoint x="490" y="230"/>
                        </Array>
                    </mxGeometry>
                </mxCell>
                <mxCell id="c1o_I43gNxkD8a20djhd-36" value="ACK address change" style="edgeLabel;html=1;align=center;verticalAlign=middle;resizable=0;points=[];" parent="c1o_I43gNxkD8a20djhd-33" vertex="1" connectable="0">
                    <mxGeometry x="0.0154" y="2" relative="1" as="geometry">
                        <mxPoint y="-2" as="offset"/>
                    </mxGeometry>
                </mxCell>
                <mxCell id="c1o_I43gNxkD8a20djhd-69" style="edgeStyle=orthogonalEdgeStyle;rounded=0;orthogonalLoop=1;jettySize=auto;html=1;curved=0;" parent="1" edge="1">
                    <mxGeometry relative="1" as="geometry">
                        <mxPoint x="540" y="440" as="sourcePoint"/>
                        <mxPoint x="280" y="440" as="targetPoint"/>
                    </mxGeometry>
                </mxCell>
                <mxCell id="c1o_I43gNxkD8a20djhd-71" value="AT+SEND= &lt;i&gt;AUGUST_PARENT&lt;/i&gt;&lt;div&gt;ACK_DROP_PAYLOAD&lt;/div&gt;" style="edgeLabel;html=1;align=center;verticalAlign=middle;resizable=0;points=[];" parent="c1o_I43gNxkD8a20djhd-69" vertex="1" connectable="0">
                    <mxGeometry x="0.0462" y="-1" relative="1" as="geometry">
                        <mxPoint as="offset"/>
                    </mxGeometry>
                </mxCell>
                <mxCell id="24" value="&lt;meta charset=&quot;utf-8&quot;&gt;&lt;span style=&quot;color: rgb(0, 0, 0); font-family: Helvetica; font-size: 11px; font-style: normal; font-variant-ligatures: normal; font-variant-caps: normal; font-weight: 400; letter-spacing: normal; orphans: 2; text-align: center; text-indent: 0px; text-transform: none; widows: 2; word-spacing: 0px; -webkit-text-stroke-width: 0px; background-color: rgb(255, 255, 255); text-decoration-thickness: initial; text-decoration-style: initial; text-decoration-color: initial; float: none; display: inline !important;&quot;&gt;Rotate Servo&lt;/span&gt;" style="edgeStyle=none;html=1;curved=0;rounded=0;" edge="1" parent="1" source="c1o_I43gNxkD8a20djhd-23" target="c1o_I43gNxkD8a20djhd-50">
                    <mxGeometry relative="1" as="geometry"/>
                </mxCell>
                <mxCell id="c1o_I43gNxkD8a20djhd-23" value="" style="html=1;points=[[0,0,0,0,5],[0,1,0,0,-5],[1,0,0,0,5],[1,1,0,0,-5]];perimeter=orthogonalPerimeter;outlineConnect=0;targetShapes=umlLifeline;portConstraint=eastwest;newEdgeStyle={&quot;curved&quot;:0,&quot;rounded&quot;:0};" parent="1" vertex="1">
                    <mxGeometry x="540" y="90" width="20" height="560" as="geometry"/>
                </mxCell>
                <mxCell id="c1o_I43gNxkD8a20djhd-25" value="AUGUST_CHILD" style="text;html=1;align=center;verticalAlign=middle;resizable=0;points=[];autosize=1;strokeColor=none;fillColor=none;rotation=0;fontStyle=1" parent="1" vertex="1">
                    <mxGeometry x="490" y="50" width="120" height="30" as="geometry"/>
                </mxCell>
                <mxCell id="c1o_I43gNxkD8a20djhd-37" style="edgeStyle=orthogonalEdgeStyle;rounded=0;orthogonalLoop=1;jettySize=auto;html=1;curved=0;" parent="1" edge="1">
                    <mxGeometry relative="1" as="geometry">
                        <mxPoint x="280" y="250" as="sourcePoint"/>
                        <mxPoint x="540" y="250" as="targetPoint"/>
                        <Array as="points">
                            <mxPoint x="500" y="250"/>
                            <mxPoint x="500" y="250"/>
                        </Array>
                    </mxGeometry>
                </mxCell>
                <mxCell id="c1o_I43gNxkD8a20djhd-38" value="Request address change" style="edgeLabel;html=1;align=center;verticalAlign=middle;resizable=0;points=[];" parent="c1o_I43gNxkD8a20djhd-37" vertex="1" connectable="0">
                    <mxGeometry x="-0.0231" relative="1" as="geometry">
                        <mxPoint as="offset"/>
                    </mxGeometry>
                </mxCell>
                <mxCell id="c1o_I43gNxkD8a20djhd-39" style="edgeStyle=orthogonalEdgeStyle;rounded=0;orthogonalLoop=1;jettySize=auto;html=1;curved=0;" parent="1" edge="1">
                    <mxGeometry relative="1" as="geometry">
                        <mxPoint x="540" y="270" as="sourcePoint"/>
                        <mxPoint x="280" y="270" as="targetPoint"/>
                        <Array as="points">
                            <mxPoint x="490" y="270"/>
                            <mxPoint x="490" y="270"/>
                        </Array>
                    </mxGeometry>
                </mxCell>
                <mxCell id="c1o_I43gNxkD8a20djhd-40" value="ACK address change" style="edgeLabel;html=1;align=center;verticalAlign=middle;resizable=0;points=[];" parent="c1o_I43gNxkD8a20djhd-39" vertex="1" connectable="0">
                    <mxGeometry x="0.0154" y="2" relative="1" as="geometry">
                        <mxPoint y="-2" as="offset"/>
                    </mxGeometry>
                </mxCell>
                <mxCell id="c1o_I43gNxkD8a20djhd-60" style="edgeStyle=orthogonalEdgeStyle;rounded=0;orthogonalLoop=1;jettySize=auto;html=1;curved=0;exitX=0;exitY=1;exitDx=0;exitDy=-5;exitPerimeter=0;" parent="1" source="c1o_I43gNxkD8a20djhd-47" edge="1">
                    <mxGeometry relative="1" as="geometry">
                        <Array as="points">
                            <mxPoint x="490" y="345"/>
                        </Array>
                        <mxPoint x="480" y="300" as="sourcePoint"/>
                        <mxPoint x="280" y="345" as="targetPoint"/>
                    </mxGeometry>
                </mxCell>
                <mxCell id="c1o_I43gNxkD8a20djhd-61" value="ACK lower payload" style="edgeLabel;html=1;align=center;verticalAlign=middle;resizable=0;points=[];" parent="c1o_I43gNxkD8a20djhd-60" vertex="1" connectable="0">
                    <mxGeometry x="-0.1333" relative="1" as="geometry">
                        <mxPoint x="-29" as="offset"/>
                    </mxGeometry>
                </mxCell>
                <mxCell id="c1o_I43gNxkD8a20djhd-47" value="" style="html=1;points=[[0,0,0,0,5],[0,1,0,0,-5],[1,0,0,0,5],[1,1,0,0,-5]];perimeter=orthogonalPerimeter;outlineConnect=0;targetShapes=umlLifeline;portConstraint=eastwest;newEdgeStyle={&quot;curved&quot;:0,&quot;rounded&quot;:0};" parent="1" vertex="1">
                    <mxGeometry x="480" y="315" width="30" height="35" as="geometry"/>
                </mxCell>
                <mxCell id="25" value="ACK Servo Rotate" style="edgeStyle=none;html=1;curved=0;rounded=0;" edge="1" parent="1" source="c1o_I43gNxkD8a20djhd-50" target="c1o_I43gNxkD8a20djhd-23">
                    <mxGeometry relative="1" as="geometry"/>
                </mxCell>
                <mxCell id="c1o_I43gNxkD8a20djhd-50" value="" style="html=1;points=[[0,0,0,0,5],[0,1,0,0,-5],[1,0,0,0,5],[1,1,0,0,-5]];perimeter=orthogonalPerimeter;outlineConnect=0;targetShapes=umlLifeline;portConstraint=eastwest;newEdgeStyle={&quot;curved&quot;:0,&quot;rounded&quot;:0};" parent="1" vertex="1">
                    <mxGeometry x="710" y="395" width="20" height="30" as="geometry"/>
                </mxCell>
                <mxCell id="c1o_I43gNxkD8a20djhd-57" value="Motor&lt;div&gt;Controller&lt;/div&gt;" style="text;html=1;align=center;verticalAlign=middle;resizable=0;points=[];autosize=1;strokeColor=none;fillColor=none;fontStyle=1" parent="1" vertex="1">
                    <mxGeometry x="455" y="275" width="80" height="40" as="geometry"/>
                </mxCell>
                <mxCell id="c1o_I43gNxkD8a20djhd-63" value="Payload Basket" style="text;html=1;align=center;verticalAlign=middle;resizable=0;points=[];autosize=1;strokeColor=none;fillColor=none;fontStyle=1" parent="1" vertex="1">
                    <mxGeometry x="665" y="355" width="110" height="30" as="geometry"/>
                </mxCell>
                <mxCell id="10" style="edgeStyle=none;html=1;curved=0;rounded=0;exitX=0;exitY=1;exitDx=0;exitDy=-5;exitPerimeter=0;" edge="1" parent="1" source="6" target="c1o_I43gNxkD8a20djhd-8">
                    <mxGeometry relative="1" as="geometry">
                        <mxPoint x="480" y="540" as="sourcePoint"/>
                    </mxGeometry>
                </mxCell>
                <mxCell id="12" value="ACK raise payload" style="edgeLabel;html=1;align=center;verticalAlign=middle;resizable=0;points=[];" vertex="1" connectable="0" parent="10">
                    <mxGeometry x="0.0146" y="1" relative="1" as="geometry">
                        <mxPoint as="offset"/>
                    </mxGeometry>
                </mxCell>
                <mxCell id="6" value="" style="html=1;points=[[0,0,0,0,5],[0,1,0,0,-5],[1,0,0,0,5],[1,1,0,0,-5]];perimeter=orthogonalPerimeter;outlineConnect=0;targetShapes=umlLifeline;portConstraint=eastwest;newEdgeStyle={&quot;curved&quot;:0,&quot;rounded&quot;:0};" vertex="1" parent="1">
                    <mxGeometry x="485" y="500" width="30" height="40" as="geometry"/>
                </mxCell>
                <mxCell id="7" value="Motor&lt;div&gt;Controller&lt;/div&gt;" style="text;html=1;align=center;verticalAlign=middle;resizable=0;points=[];autosize=1;strokeColor=none;fillColor=none;fontStyle=1" vertex="1" parent="1">
                    <mxGeometry x="460" y="460" width="80" height="40" as="geometry"/>
                </mxCell>
            </root>
        </mxGraphModel>
    </diagram>
</mxfile>